P2
128 128
255
0 1 1 1 1 0 0 0 0 0 0 0 0 34 10 0 1 0 0 0 0 0 0 0 1 0 1 1 0 1 0 64 40 
1 0 0 0 0 0 0 0 0 0 0 1 16 8 0 0 0 0 0 0 0 1 0 0 0 0 0 0 0 1 0 0 1 0 0 
0 0 0 0 15 1 0 0 118 122 0 1 6 0 0 1 1 1 0 0 1 0 0 0 1 0 0 1 0 1 0 0 2 
0 0 0 1 0 0 0 0 0 0 1 57 45 0 0 1 0 0 1 0 1 0 0 0 0 0 0 0 0 34 31 0 0 
0 0 0 0 0 0 1 46 16 0 0 0 0 19 21 3 0 0 0 0 1 0 0 0 20 47 12 1 0 0 0 0 
0 0 0 0 0 0 0 1 1 0 1 1 0 0 0 0 0 0 0 0 0 0 0 0 0 0 0 0 0 0 0 0 0 1 21 
3 0 0 55 54 0 1 0 0 1 0 0 0 0 1 1 0 0 0 0 0 1 0 0 1 44 75 0 0 0 0 0 1 
0 0 1 0 3 0 20 14 0 0 0 0 0 0 0 0 0 0 0 0 0 1 0 0 43 38 0 1 0 0 0 0 0 
0 0 1 1 0 0 1 1 42 51 18 0 0 0 0 0 0 0 4 0 0 0 1 0 1 0 0 6 7 1 0 0 0 0 
0 0 40 90 0 0 0 0 0 0 0 0 0 1 0 0 0 0 0 0 0 1 0 0 0 0 0 0 0 0 1 0 0 2 
1 0 1 1 0 0 0 0 1 0 0 1 0 0 17 57 4 0 0 47 77 0 55 46 0 0 2 1 0 3 1 10 
2 1 0 0 1 0 0 0 0 0 0 1 0 0 0 0 0 0 0 0 0 2 0 6 0 0 0 1 10 3 0 0 0 0 0 
0 0 1 0 0 0 2 0 0 1 0 14 1 1 0 1 0 0 0 1 8 0 0 1 0 2 5 0 0 17 46 1 0 0 
0 0 0 1 0 0 0 0 1 1 0 0 23 43 3 4 0 0 0 0 0 0 0 0 0 1 0 42 41 53 64 1 
0 1 1 3 0 0 0 0 0 26 78 15 0 0 0 0 0 60 46 52 31 0 57 96 0 35 18 0 0 1 
0 0 0 8 8 0 0 8 2 0 0 0 0 0 0 0 0 0 0 0 1 0 0 0 0 18 8 0 0 0 0 0 0 0 0 
0 0 0 2 0 1 2 1 0 21 24 0 0 0 0 0 0 0 94 74 0 0 1 3 0 0 1 0 1 1 0 0 0 
0 0 1 2 1 1 6 29 3 0 1 21 44 1 0 0 0 0 0 0 0 0 14 15 0 29 31 2 10 0 0 
0 10 9 0 0 0 0 0 1 1 3 0 0 0 0 1 0 0 82 47 0 26 48 0 20 8 0 1 0 0 0 0 
4 4 0 0 29 14 5 0 1 1 0 0 0 2 0 0 0 0 0 0 0 0 0 0 0 1 0 0 0 0 0 0 0 1 
0 0 46 86 0 0 0 37 41 0 0 0 0 0 1 0 63 48 0 1 0 1 0 1 1 24 3 0 0 0 0 0 
0 1 1 0 1 18 65 13 15 1 7 30 0 0 1 0 1 0 0 1 1 0 0 1 0 0 0 0 0 0 0 0 0 
0 2 0 1 2 0 0 0 1 1 0 0 1 0 0 1 0 0 1 0 1 0 0 0 0 0 1 0 0 0 0 0 0 0 0 
4 0 0 0 0 0 0 1 0 1 1 0 0 0 0 1 0 0 0 0 0 0 0 0 0 0 0 0 0 0 60 108 1 43 
3 18 0 0 0 0 0 0 0 0 0 1 0 1 1 0 0 0 0 0 0 0 33 60 0 0 0 0 4 0 0 0 1 5 
36 5 0 0 0 0 0 1 1 0 0 5 22 0 0 0 0 0 0 0 0 0 0 0 36 30 1 2 0 1 2 59 70 
0 0 0 0 0 85 37 0 0 0 0 6 0 0 1 0 1 0 0 0 0 0 0 1 0 0 0 0 0 0 0 0 1 0 
0 0 0 0 1 0 0 0 0 0 0 0 0 0 0 1 0 0 1 0 0 0 0 0 0 5 50 9 22 80 0 0 1 0 
16 30 5 0 0 0 0 0 0 0 0 0 0 0 0 22 42 1 0 0 0 0 0 0 0 0 1 3 0 0 0 0 0 
1 0 0 0 0 3 12 0 1 0 0 0 0 0 0 0 0 0 36 30 0 1 1 0 11 48 50 0 0 0 0 1 
47 16 1 0 1 1 7 34 1 0 0 0 0 1 0 0 0 1 12 0 0 0 0 0 0 0 0 1 0 0 0 0 0 
0 0 0 0 0 0 0 0 0 0 0 1 0 0 0 0 0 1 0 0 0 0 0 0 8 50 4 0 0 1 19 33 7 0 
0 6 0 0 1 0 0 0 0 1 0 0 0 0 0 0 0 0 1 0 0 0 0 0 2 20 1 1 1 0 0 0 0 0 0 
0 0 1 0 0 4 12 0 0 0 0 5 0 0 0 0 0 0 1 0 1 0 1 0 0 1 1 0 0 0 0 0 18 59 
1 1 0 0 1 0 1 0 0 5 33 3 0 0 0 0 0 0 0 0 1 0 0 0 0 0 0 0 1 0 1 0 0 1 0 
1 46 7 1 0 0 1 0 0 0 1 0 0 0 0 0 3 0 1 0 0 1 0 1 0 1 0 0 0 0 0 0 0 0 1 
0 0 0 0 0 0 1 1 0 0 0 0 2 0 0 0 0 0 0 0 0 1 0 0 0 1 45 16 0 7 20 0 0 1 
0 0 0 0 1 0 1 0 1 1 0 0 0 0 0 4 26 1 0 1 1 1 0 0 0 0 1 0 27 3 0 131 83 
0 0 0 0 0 0 0 61 32 0 1 0 0 0 0 0 0 0 0 0 1 0 0 0 0 1 0 12 0 0 0 0 0 0 
0 0 0 0 0 1 0 0 0 0 0 3 15 0 0 0 0 1 1 0 0 0 0 0 0 0 0 0 0 0 0 1 1 0 0 
2 0 47 103 0 94 65 0 0 0 0 0 0 0 0 0 0 1 29 8 1 1 0 0 0 0 1 0 0 0 0 0 
0 0 0 0 1 0 0 0 1 1 17 35 18 12 0 1 0 0 0 1 10 0 1 47 22 114 75 1 0 8 
30 0 1 1 52 30 0 0 0 1 0 0 0 0 0 0 0 0 0 1 0 0 0 1 0 0 0 0 0 0 1 1 0 0 
0 0 0 0 0 0 0 0 19 47 0 1 0 0 0 0 1 0 0 0 0 0 39 19 1 0 0 0 49 51 0 1 
11 4 20 51 0 106 75 0 0 1 1 2 1 0 0 0 0 0 1 1 0 0 1 0 0 1 0 0 0 1 0 0 
0 0 0 0 0 0 0 0 1 1 1 40 27 0 0 1 0 0 1 38 20 1 1 31 23 0 0 4 0 0 6 0 
0 7 77 5 2 1 1 0 0 54 43 0 0 0 0 1 0 0 0 0 0 24 30 0 1 0 0 1 0 0 0 0 0 
1 0 1 0 1 0 0 0 1 6 3 0 0 1 0 0 0 0 16 44 0 38 19 0 0 0 1 28 29 0 0 0 
0 0 0 2 0 0 1 0 14 45 70 9 0 0 0 0 0 0 1 0 0 0 0 4 2 1 1 17 26 0 0 0 0 
0 0 0 0 0 0 0 0 0 0 4 0 0 0 12 27 44 17 4 0 0 0 4 13 0 0 0 0 1 0 1 7 48 
3 0 44 70 0 0 36 27 0 0 0 0 0 0 0 0 0 0 25 53 0 0 0 0 0 1 1 0 0 0 0 0 
0 1 0 0 0 1 6 40 2 0 0 0 0 0 1 1 3 10 0 1 0 0 0 1 0 0 1 0 0 0 0 0 0 0 
0 0 0 0 47 90 0 0 0 0 0 0 0 0 0 0 0 0 0 1 1 109 103 1 36 1 0 0 0 0 0 0 
0 5 2 0 0 0 4 9 1 12 9 16 31 9 0 0 7 1 14 24 32 0 0 0 0 0 1 1 5 0 1 0 
25 42 0 0 25 14 1 0 0 0 0 0 0 12 29 0 1 43 3 0 0 0 0 1 2 0 0 0 0 0 0 0 
0 0 0 0 0 0 0 1 0 0 0 0 0 0 28 8 0 0 0 1 0 0 0 0 0 1 0 11 5 0 1 0 0 0 
1 0 0 0 0 1 1 0 0 0 0 0 1 0 0 0 0 0 0 60 60 0 0 0 0 0 0 0 0 0 0 3 16 31 
0 0 0 0 0 38 59 21 0 1 0 0 15 5 2 1 0 1 1 0 0 0 1 0 1 22 22 0 0 0 7 1 
43 83 1 46 3 49 2 0 0 26 50 0 0 0 0 0 0 19 8 0 0 1 0 0 1 20 16 0 0 0 0 
0 0 5 23 0 1 0 0 0 0 3 21 0 0 0 1 0 0 0 0 0 0 0 0 3 1 0 0 0 0 0 0 0 0 
0 2 4 0 1 1 0 0 1 0 0 0 0 1 0 0 0 0 2 0 0 18 13 0 0 0 2 1 0 1 6 0 1 0 
0 1 1 65 19 27 0 1 0 0 0 0 0 0 0 0 0 1 0 0 0 23 62 39 0 0 1 13 0 9 31 
40 144 43 65 33 17 14 42 13 0 1 1 0 0 0 0 1 2 25 0 0 0 0 20 13 0 0 1 0 
0 6 0 0 0 0 0 0 0 0 1 0 0 0 0 0 0 0 0 0 0 0 0 0 0 0 1 0 0 1 0 0 0 1 0 
4 9 0 36 31 38 0 0 0 41 18 0 0 0 0 0 0 0 0 0 4 2 0 0 0 1 0 0 0 0 0 1 2 
1 0 10 0 47 70 0 0 1 14 51 5 10 24 0 0 0 1 0 0 0 35 28 0 0 0 0 0 1 1 0 
2 38 25 1 68 46 23 7 0 13 3 1 0 0 0 0 1 3 24 0 0 0 0 30 19 0 0 0 0 11 
23 0 0 0 0 0 0 0 1 1 0 0 4 0 0 0 0 1 0 0 0 0 0 0 0 0 0 0 0 0 0 0 1 0 0 
0 0 73 49 70 14 0 0 36 13 0 0 0 0 0 0 0 32 5 0 0 0 0 0 0 0 0 0 0 0 66 
70 1 0 30 30 0 0 0 0 0 25 82 0 1 32 34 11 0 0 0 0 5 0 0 20 18 0 0 0 0 
0 0 0 0 1 0 0 1 1 0 0 8 4 0 47 51 87 28 0 35 36 0 0 0 0 0 0 0 0 0 1 70 
29 1 0 0 0 0 3 0 2 38 10 0 10 19 1 0 0 0 0 0 0 0 0 0 0 0 0 0 0 0 1 0 0 
0 0 0 45 8 0 42 19 0 1 0 1 2 0 0 0 0 1 0 16 1 0 1 80 41 1 1 5 7 0 1 0 
19 36 79 16 18 20 0 0 3 1 1 0 0 0 11 52 59 0 0 0 1 0 1 7 12 15 15 0 1 
0 1 0 0 2 0 0 0 0 1 0 0 21 35 0 1 8 29 83 49 0 6 6 0 0 1 0 0 1 0 0 10 
2 6 1 1 1 0 0 0 0 1 1 29 6 16 5 1 0 0 1 0 1 0 0 0 0 2 0 0 0 0 0 0 0 0 
0 0 0 0 92 41 0 0 0 18 18 0 0 0 0 0 0 0 0 0 0 0 1 0 141 73 0 0 0 3 0 0 
0 0 25 81 28 0 0 7 12 0 0 0 0 0 0 0 0 0 0 0 0 1 0 0 8 14 32 42 0 0 0 26 
13 0 6 0 0 1 0 0 0 0 9 18 0 104 52 0 81 83 0 0 0 0 1 32 18 0 0 0 0 40 
15 0 0 0 0 0 0 0 0 0 0 1 0 23 9 1 0 0 0 0 0 1 0 4 30 0 0 0 9 1 0 9 4 0 
0 0 0 0 0 0 7 1 0 81 78 0 0 0 0 0 1 0 0 0 0 0 0 0 1 0 0 3 32 4 0 0 0 0 
0 0 0 23 30 0 4 0 0 1 0 0 5 0 0 0 0 0 0 0 0 7 0 0 15 21 2 1 0 25 10 1 
1 0 0 1 0 0 0 0 0 0 11 70 31 0 0 0 27 1 0 0 25 48 27 0 0 0 7 0 0 0 0 0 
0 0 0 0 1 0 0 0 0 0 1 0 0 0 1 0 0 1 0 3 23 1 4 33 5 1 0 1 0 0 0 0 0 0 
0 0 1 0 0 6 4 1 0 0 1 2 0 0 3 4 0 2 1 0 0 0 0 2 26 1 0 0 0 0 1 0 0 28 
28 0 0 0 0 0 0 0 0 112 76 24 0 0 0 0 1 26 48 0 1 1 2 1 1 0 17 49 1 0 0 
0 0 0 0 0 0 0 2 0 0 1 0 2 43 3 0 26 75 56 1 1 0 0 1 0 0 1 1 0 1 0 0 1 
15 4 1 0 0 0 0 0 2 0 0 0 0 0 0 0 0 0 4 24 2 2 0 0 0 0 1 0 0 0 1 1 4 0 
0 0 9 31 0 0 0 0 2 10 1 1 0 0 0 0 0 0 0 0 1 0 0 0 0 0 0 0 0 12 4 0 1 1 
0 1 0 1 0 82 70 28 53 56 0 1 0 32 65 0 0 0 0 0 0 1 44 98 1 0 0 0 0 0 0 
0 0 0 0 0 0 0 1 1 0 1 1 61 85 2 1 0 0 1 0 0 0 0 0 0 1 0 0 0 23 44 41 1 
0 0 0 0 1 0 0 0 0 1 0 0 0 0 0 0 0 2 0 0 0 0 0 0 10 2 0 0 8 4 22 2 1 0 
0 0 0 0 0 9 0 8 8 0 0 0 0 0 1 0 12 34 0 0 0 0 46 34 1 0 0 0 0 21 49 1 
0 0 2 0 0 0 44 46 0 0 63 46 0 0 1 1 0 0 0 1 0 0 1 0 0 1 1 0 0 1 0 0 0 
18 2 0 0 1 0 0 0 0 7 61 1 0 1 1 0 0 1 0 0 0 0 4 2 0 1 20 15 1 0 0 0 0 
0 0 0 0 0 0 0 0 0 0 0 0 0 0 0 0 0 0 1 1 18 0 1 0 0 1 13 1 1 0 0 1 0 0 
0 0 0 0 0 0 5 23 0 0 90 58 0 27 15 10 0 0 62 46 0 0 0 1 4 40 42 12 5 0 
0 0 2 29 0 17 10 0 32 22 0 0 2 1 1 0 0 1 28 1 0 6 1 0 0 46 46 0 5 2 0 
0 0 0 0 0 0 0 0 0 0 2 0 0 1 1 0 0 1 0 0 1 0 4 1 3 1 1 51 35 1 0 0 0 0 
0 0 0 0 0 1 0 0 0 0 0 0 0 0 60 24 0 0 1 29 72 8 0 0 0 1 0 0 0 1 0 0 0 
0 1 0 0 0 0 5 25 1 1 53 23 63 23 16 11 0 31 43 0 0 9 21 0 2 13 0 16 7 
0 0 0 26 112 22 0 0 1 0 1 0 0 0 1 0 4 2 0 0 0 0 10 4 0 0 55 52 1 6 0 21 
0 0 2 1 2 1 1 1 0 0 0 28 6 90 49 70 10 0 0 0 0 0 0 14 37 14 0 126 90 0 
0 0 0 0 0 0 0 0 0 0 0 0 1 0 0 0 0 0 27 7 0 0 0 14 62 28 0 1 0 0 1 0 0 
0 0 0 0 0 1 1 28 12 0 0 1 1 1 0 0 22 12 0 0 0 30 48 0 0 32 60 0 0 1 0 
0 0 0 0 0 0 18 1 0 0 0 0 4 1 0 0 1 0 39 24 0 0 0 0 0 0 109 94 0 0 0 0 
46 49 79 83 0 1 0 0 2 86 32 0 1 78 44 122 66 71 9 0 0 2 3 3 0 8 4 0 0 
2 0 1 0 0 0 0 0 0 0 0 0 0 1 0 0 0 0 0 1 0 0 0 0 0 0 0 0 0 0 0 0 0 0 0 
0 0 17 1 0 1 8 0 11 3 0 1 2 0 0 13 5 0 0 0 0 0 0 1 29 48 1 0 0 0 14 68 
4 0 1 0 1 0 0 1 1 0 3 3 0 0 0 2 1 0 1 0 40 51 0 0 5 0 97 66 0 40 1 41 
50 0 83 104 0 0 0 0 2 54 19 13 1 18 16 0 0 0 0 0 0 10 17 0 0 0 0 1 0 0 
0 0 0 2 1 0 0 0 0 0 0 0 0 3 5 0 0 1 0 16 3 0 0 7 23 0 0 2 0 0 0 0 1 0 
6 1 11 1 0 1 12 3 0 0 2 0 18 10 0 17 8 1 0 0 3 12 0 20 11 25 11 9 0 0 
16 77 7 1 2 0 0 94 60 0 0 0 0 0 0 1 0 1 1 0 0 0 13 17 0 0 1 2 0 0 58 127 
16 24 0 0 0 0 16 0 0 1 0 0 0 0 1 21 9 1 0 0 0 0 0 0 1 0 0 0 0 1 16 37 
1 5 0 1 0 0 0 0 0 0 0 0 0 0 0 0 0 0 0 3 1 1 0 36 72 0 0 2 8 0 0 0 0 1 
1 0 0 0 0 8 14 0 100 82 0 0 49 33 0 16 0 8 27 0 4 9 0 1 0 0 5 21 0 10 
0 0 0 0 1 0 0 86 58 0 0 0 0 0 41 56 0 1 1 0 0 0 0 1 0 0 0 1 0 25 17 18 
69 43 41 33 1 2 2 0 0 1 0 0 1 0 0 36 17 45 28 0 0 0 0 0 0 0 1 0 0 0 20 
43 4 9 0 0 0 0 0 0 0 0 0 0 0 0 0 0 0 0 0 0 0 74 55 0 1 0 0 0 2 0 0 0 7 
3 1 0 1 1 0 1 1 0 100 82 1 0 0 0 6 9 0 1 5 0 0 0 1 5 1 0 0 0 0 4 27 39 
0 1 4 1 0 0 0 1 1 0 15 83 19 23 1 0 1 1 0 0 1 1 0 0 0 0 0 0 1 1 0 30 87 
0 1 1 6 0 0 0 1 0 0 1 3 3 0 23 6 0 0 0 1 1 0 1 0 0 0 0 0 0 0 1 0 3 1 0 
0 0 0 0 0 0 0 0 0 0 0 0 0 0 1 78 56 49 24 0 0 1 0 1 0 0 45 23 5 27 0 0 
15 1 17 27 0 0 5 0 60 53 0 3 0 0 0 0 0 1 0 7 3 0 0 0 0 0 31 51 0 15 34 
0 26 48 0 0 0 0 4 38 0 0 1 1 1 0 1 0 0 0 0 1 1 0 0 0 0 0 0 2 19 1 0 0 
1 2 0 0 0 1 0 0 1 0 7 48 0 0 1 0 1 1 0 0 0 1 0 0 0 0 0 0 0 0 15 50 0 0 
2 0 0 1 0 1 1 6 13 0 0 0 3 0 0 28 11 0 0 0 0 0 15 22 1 3 7 15 0 2 19 0 
13 19 1 0 1 1 32 27 20 0 29 26 0 7 0 0 0 0 0 61 37 0 1 0 10 32 1 0 1 0 
18 35 0 0 0 0 0 0 0 4 1 1 0 3 0 0 1 0 0 2 48 4 1 21 3 0 0 21 14 0 0 0 
0 8 1 0 5 1 0 1 1 0 0 0 0 0 0 1 0 0 0 0 0 0 0 0 0 0 0 0 0 0 35 96 1 0 
2 0 0 0 0 0 0 1 2 1 0 0 21 9 0 3 14 0 1 0 11 24 14 25 0 3 3 0 0 2 2 7 
16 0 0 2 0 0 0 0 30 1 37 51 1 7 1 0 0 0 1 85 42 0 0 16 33 0 0 0 0 0 0 
0 0 1 0 0 52 14 0 3 0 0 1 5 0 0 0 1 3 0 61 15 0 1 5 0 1 42 37 0 0 22 15 
0 0 0 60 34 0 0 0 2 0 1 0 0 0 40 30 0 0 1 8 1 1 0 0 1 0 0 2 2 0 0 5 0 
0 0 0 0 0 16 14 4 1 1 0 0 0 0 0 0 0 16 45 0 32 27 0 0 0 0 2 0 0 0 0 2 
13 6 17 45 1 0 14 20 0 27 47 4 0 7 3 0 1 0 0 1 0 1 1 9 22 0 0 0 0 1 0 
1 2 0 0 0 30 4 0 0 0 0 3 0 0 0 22 47 0 3 21 32 0 1 3 2 0 0 0 0 0 12 7 
0 0 1 12 32 35 0 0 0 1 1 0 1 0 60 47 0 0 0 11 2 0 0 0 0 20 18 1 1 0 0 
26 49 0 0 0 15 38 3 42 28 0 0 0 0 0 6 9 1 2 19 74 33 62 17 24 0 1 1 0 
0 0 0 0 11 39 87 34 69 50 19 0 2 0 18 30 0 0 1 1 1 1 0 0 1 6 0 1 2 2 66 
12 0 93 25 0 4 21 1 1 0 1 0 0 0 5 1 0 1 4 3 4 0 130 121 0 0 0 0 0 1 0 
0 0 20 28 0 0 0 0 3 0 3 14 0 0 0 0 1 0 0 2 0 0 0 0 2 1 2 7 3 0 0 4 5 1 
0 0 1 14 32 1 0 0 32 90 53 1 1 0 1 0 0 0 42 41 0 1 1 47 41 69 34 28 0 
38 3 1 6 8 0 0 1 1 42 21 51 53 15 1 0 0 0 0 2 1 1 0 0 2 0 0 24 47 20 28 
0 0 33 4 0 55 12 0 0 1 0 0 1 0 0 0 0 8 0 0 1 0 1 0 0 170 152 0 41 30 0 
2 0 0 8 9 17 23 1 0 3 4 0 0 1 0 0 0 1 0 0 0 0 2 8 0 0 0 3 1 0 0 0 1 0 
1 0 0 0 0 0 0 1 0 28 0 10 10 15 0 0 1 0 0 0 0 107 76 0 0 0 0 0 53 91 41 
70 58 34 0 39 44 0 0 0 0 2 31 1 0 1 0 0 0 0 1 1 0 0 17 9 0 78 80 0 3 19 
22 9 28 0 1 0 0 0 0 0 0 0 0 0 0 0 0 0 0 1 0 1 13 38 9 11 0 1 0 78 58 1 
33 1 1 60 23 12 0 45 61 10 26 1 0 0 0 1 0 39 35 1 0 0 0 0 0 1 1 0 0 0 
0 1 1 1 3 17 1 0 0 2 21 7 38 37 0 12 8 0 0 29 40 0 0 0 1 40 27 8 1 29 
74 14 29 4 53 73 9 50 38 0 0 0 4 0 1 15 41 2 5 0 0 0 0 30 46 0 1 0 86 
57 0 63 64 0 0 0 0 1 4 0 0 7 3 0 3 27 1 0 0 0 1 0 0 0 0 0 0 5 17 17 8 
0 8 0 23 37 0 2 0 38 60 6 47 13 42 49 68 0 0 0 0 0 36 72 0 16 15 0 0 0 
0 0 0 0 0 4 0 0 0 0 0 0 12 40 0 0 0 0 19 56 43 35 0 0 0 0 4 10 16 0 1 
9 16 0 0 22 0 32 93 21 11 0 0 0 5 46 44 0 0 0 6 3 1 1 1 0 0 0 0 1 0 36 
52 8 54 2 21 8 0 1 0 1 0 0 0 0 0 0 0 0 3 10 3 30 13 0 1 0 0 0 0 0 0 1 
0 0 0 0 1 1 12 1 0 0 44 6 0 42 73 0 98 32 11 0 0 6 0 5 5 1 19 45 0 0 0 
0 42 38 0 0 0 1 16 40 0 0 0 0 1 0 0 1 4 7 0 0 1 8 22 31 0 0 0 1 0 0 0 
27 10 30 67 59 8 0 4 1 0 35 0 0 20 44 0 0 1 1 0 0 50 35 0 5 8 0 0 24 54 
0 0 1 0 12 24 1 0 1 0 0 0 0 0 4 15 2 0 0 0 0 23 53 2 39 37 0 0 0 0 0 0 
0 0 25 22 32 0 0 1 0 60 14 1 4 69 0 69 38 66 55 0 0 1 0 42 39 0 39 38 
0 1 0 0 0 0 0 54 49 0 0 0 0 1 4 0 0 0 1 0 0 1 1 2 4 0 0 0 0 0 0 0 1 9 
31 0 1 1 14 6 0 23 80 14 0 0 1 115 97 112 5 0 63 65 45 0 9 2 0 9 5 0 0 
0 0 6 18 22 1 0 0 3 0 0 1 1 0 15 29 0 0 1 35 70 0 1 0 1 0 0 8 4 1 0 15 
6 1 0 0 0 1 0 61 54 54 34 45 0 8 73 6 1 0 0 43 65 27 47 68 0 20 40 20 
1 4 15 4 4 6 0 0 0 0 0 1 1 0 0 0 1 0 0 18 25 0 0 2 0 0 0 0 0 0 0 0 0 0 
0 0 0 0 4 55 27 0 1 0 0 67 59 0 6 11 1 0 56 83 133 36 0 61 55 1 2 57 24 
0 0 0 0 0 0 26 52 0 0 1 0 0 0 1 0 0 0 0 42 70 0 0 1 3 10 1 8 1 0 0 0 0 
1 8 38 4 0 0 0 1 0 0 72 25 0 0 25 39 0 0 22 0 0 0 0 22 2 8 15 0 61 49 
42 25 0 1 0 0 0 0 0 0 0 0 1 0 4 6 0 34 20 0 0 21 30 0 0 1 1 12 11 0 1 
1 0 0 0 1 0 1 1 0 0 19 16 1 0 0 0 34 31 4 14 4 0 1 0 52 48 1 4 1 0 1 0 
12 1 0 0 1 0 2 0 57 97 0 0 1 5 12 1 29 18 0 0 3 0 0 0 1 0 0 1 10 31 1 
0 0 49 50 1 10 45 0 0 0 0 0 0 0 23 4 0 0 18 36 1 1 0 1 1 25 19 0 0 0 0 
1 26 14 0 1 0 0 0 0 25 0 0 0 0 0 0 0 0 1 0 16 8 0 0 1 0 0 6 60 19 12 14 
0 0 0 8 2 1 1 66 25 0 0 0 5 1 0 0 0 0 0 0 3 0 0 5 0 0 24 45 0 9 13 0 1 
1 0 1 0 0 13 0 36 36 0 0 0 0 0 33 59 10 71 47 1 0 0 1 0 0 6 2 0 0 11 36 
0 0 0 61 44 0 4 18 67 69 49 44 1 0 0 60 26 1 0 21 44 0 30 32 0 0 9 59 
10 1 1 0 1 0 1 1 0 0 0 0 3 48 5 0 3 0 0 0 0 0 1 13 4 0 0 0 0 0 0 6 59 
18 0 19 27 0 0 18 8 0 1 40 13 0 3 79 53 0 0 3 22 40 42 11 31 0 16 34 0 
0 0 0 0 1 3 1 1 0 8 8 0 0 12 25 9 9 0 1 0 1 0 1 2 5 0 27 19 0 0 0 0 0 
3 0 0 0 0 0 1 0 0 0 0 1 0 0 99 92 34 35 1 0 0 26 8 1 5 0 76 79 20 37 0 
0 1 69 15 0 0 10 17 0 0 0 0 0 0 1 0 0 0 0 0 1 0 0 0 0 9 47 4 0 0 0 0 0 
0 0 0 7 0 2 2 0 4 16 3 3 0 1 1 0 2 47 0 0 22 23 80 54 51 0 3 0 41 14 1 
7 0 0 0 0 1 28 5 0 5 3 0 0 45 68 0 0 0 1 0 0 0 0 20 42 0 56 40 0 0 0 0 
0 1 1 0 0 0 0 0 0 0 1 0 39 21 0 0 0 0 0 0 0 0 0 0 0 16 40 63 30 6 44 65 
41 0 30 22 1 2 20 35 12 0 1 0 0 18 92 23 0 0 1 0 0 0 0 3 0 2 16 0 0 0 
22 44 0 0 0 0 3 5 7 23 0 14 38 0 0 0 2 2 0 0 56 173 61 50 23 0 50 0 0 
5 4 49 15 0 2 19 34 66 1 7 90 18 1 5 5 0 0 49 44 1 0 0 1 0 0 0 0 77 132 
0 0 0 0 0 0 23 22 0 0 2 0 0 0 0 0 0 0 6 29 3 2 26 0 1 1 0 0 1 6 0 0 52 
73 21 1 48 0 93 57 26 17 2 1 33 43 20 8 21 0 0 0 24 112 20 64 80 0 0 0 
0 0 0 0 0 0 0 0 0 30 55 0 0 0 1 0 0 1 11 0 2 0 0 0 28 63 12 0 0 44 126 
38 0 18 0 14 57 50 16 2 0 1 1 0 0 60 65 0 0 7 74 20 0 1 0 0 0 0 0 1 0 
0 0 0 0 1 13 31 0 1 0 0 5 1 42 32 74 81 0 1 0 0 19 46 0 1 1 0 0 1 0 1 
0 1 0 0 15 44 0 0 31 25 39 124 87 69 0 0 0 0 43 25 6 1 1 9 23 0 0 0 1 
0 1 122 146 0 0 0 0 12 41 0 0 0 0 38 15 0 1 2 0 0 0 0 15 2 2 1 3 1 4 5 
50 66 20 0 0 14 0 2 45 41 49 86 109 71 0 3 31 5 0 3 43 59 23 27 67 33 
48 35 22 0 0 0 1 6 11 47 35 0 0 0 0 4 0 0 21 61 3 1 0 0 0 0 127 123 0 
0 0 2 38 10 12 30 0 0 0 0 0 0 0 0 0 0 1 9 0 0 64 0 51 111 87 15 0 1 1 
65 21 2 0 0 13 8 1 40 73 1 0 0 21 2 0 10 1 0 12 12 23 1 0 0 0 69 31 0 
0 6 0 0 0 0 0 2 13 0 0 0 1 1 1 48 6 0 6 22 0 0 131 77 100 123 72 2 28 
0 6 2 0 0 109 82 0 31 56 18 0 15 4 0 0 1 0 36 64 18 20 0 0 0 9 2 0 0 14 
47 1 0 0 1 11 9 0 0 0 1 4 2 51 53 4 22 1 0 0 0 0 0 1 0 0 0 0 0 1 0 17 
0 36 144 178 1 0 53 35 37 5 0 6 0 51 27 0 37 104 84 44 1 3 0 21 13 1 1 
2 2 0 0 1 0 0 0 0 1 16 6 0 0 0 1 31 5 1 0 0 0 1 0 0 51 53 71 28 19 9 0 
56 81 117 147 67 125 85 0 39 26 1 0 0 53 26 22 29 0 14 17 36 6 0 0 1 2 
14 30 63 0 0 1 71 28 7 7 9 0 0 1 15 52 0 0 0 16 75 57 0 34 43 66 0 12 
0 0 0 0 0 1 1 10 3 0 0 1 0 0 29 33 0 142 141 0 27 68 44 1 0 0 2 0 13 2 
1 5 0 44 24 8 1 0 18 6 0 1 0 1 0 0 0 0 0 0 1 14 11 5 0 1 1 1 13 1 1 1 
0 0 0 0 0 73 88 29 5 26 29 115 106 187 97 104 100 78 92 89 0 7 0 16 17 
24 17 0 0 1 8 21 30 2 2 16 0 1 90 37 21 1 0 1 19 47 69 0 1 0 0 0 16 38 
61 47 0 0 158 155 0 28 26 1 31 103 5 0 1 1 1 0 1 30 28 0 0 1 0 0 0 87 
45 43 73 42 5 46 62 102 69 1 0 0 3 3 1 7 8 0 9 20 0 1 0 0 0 0 0 1 1 0 
1 0 0 0 0 0 0 0 4 38 7 0 0 0 2 3 1 0 0 1 1 0 0 1 15 38 100 187 138 98 
0 55 86 36 46 37 0 0 0 0 48 37 0 0 0 0 7 12 0 0 22 83 32 17 34 7 0 1 0 
0 1 9 19 0 0 0 6 5 1 1 66 52 0 4 34 56 0 13 31 0 7 40 1 0 0 0 1 0 0 0 
29 0 0 0 1 0 27 145 76 72 77 1 1 43 92 117 69 0 0 0 26 21 0 0 63 39 0 
1 0 7 1 0 1 0 0 0 0 0 59 42 0 3 0 0 0 0 14 62 11 0 0 0 0 1 1 3 10 1 6 
48 20 1 30 52 54 91 100 59 42 37 28 41 95 21 15 25 1 0 18 17 53 13 0 0 
0 0 0 0 3 24 33 24 0 0 5 0 0 1 0 0 1 0 0 1 24 19 1 0 0 0 9 17 1 0 1 0 
1 0 0 0 0 1 0 0 0 0 0 1 0 0 1 1 1 0 118 145 103 42 16 7 0 63 39 0 0 1 
0 0 1 1 0 0 19 9 0 0 0 1 0 0 23 12 0 0 1 54 67 37 0 25 0 0 16 65 20 0 
0 5 1 0 8 45 6 0 1 1 0 73 97 27 0 0 4 0 0 0 34 11 35 76 55 10 32 48 40 
32 5 7 26 4 3 0 0 0 0 1 0 0 1 54 28 1 0 1 13 30 8 0 0 3 0 0 1 1 0 0 0 
0 0 0 59 7 0 9 2 0 0 0 0 0 0 0 0 0 0 0 0 0 7 37 15 0 74 119 109 0 46 28 
1 0 0 5 1 0 0 45 28 1 8 28 0 0 0 0 1 15 39 47 28 0 0 1 0 12 13 45 0 1 
0 0 23 62 10 0 0 0 0 3 20 65 9 0 35 10 0 0 38 8 1 2 0 74 58 0 17 10 20 
50 9 3 12 15 28 19 0 1 0 0 18 2 0 3 0 0 0 0 0 24 4 32 33 1 1 66 47 0 40 
114 14 0 0 0 0 0 0 0 0 0 26 1 3 44 24 0 1 0 0 0 21 40 0 0 0 0 25 38 44 
9 7 8 0 0 0 27 1 64 50 0 0 0 0 1 0 80 53 0 1 8 0 0 0 0 0 15 36 18 8 0 
0 0 1 0 0 0 0 0 0 46 114 1 0 0 0 0 1 0 1 1 1 0 24 25 2 0 0 0 1 0 0 55 
47 1 62 57 0 15 68 5 41 110 19 0 0 0 0 0 1 0 0 0 1 0 0 1 0 0 1 60 49 0 
0 14 10 11 52 50 2 0 0 0 0 1 0 0 0 1 0 0 5 5 0 0 2 0 0 0 37 67 1 0 0 0 
24 33 2 0 0 1 0 30 86 1 4 45 31 0 0 49 55 0 13 0 1 2 0 0 0 1 19 10 0 0 
0 0 9 0 1 0 0 0 13 15 1 40 6 33 93 10 0 0 0 0 0 0 1 3 0 66 61 1 0 0 0 
0 0 26 24 36 23 23 33 13 0 45 119 18 5 37 22 7 0 0 0 1 1 3 1 0 0 1 0 0 
1 94 73 19 0 2 0 0 1 7 36 0 0 2 0 0 0 7 7 0 0 1 1 1 3 0 0 0 0 1 0 0 0 
1 2 0 4 46 22 0 0 0 1 0 0 40 107 1 0 0 0 0 21 48 39 0 3 0 0 0 0 43 69 
0 6 3 0 0 0 1 1 0 0 38 26 0 40 51 0 38 10 1 0 0 0 0 2 1 0 1 0 0 0 49 45 
1 0 0 0 0 0 45 51 0 1 49 53 1 0 17 58 17 0 0 30 14 0 0 0 1 12 0 0 0 0 
8 0 43 28 85 73 45 0 0 0 0 0 0 12 10 0 1 0 0 0 2 3 0 0 6 1 0 1 1 0 17 
15 0 0 0 0 0 1 0 13 62 23 33 1 1 0 1 0 0 1 8 23 1 42 48 28 31 0 0 0 0 
0 1 1 24 40 0 0 1 1 0 0 0 1 0 0 67 46 0 0 0 0 1 1 4 0 0 0 0 9 12 0 33 
16 0 1 1 0 1 1 37 98 3 0 0 0 0 0 0 23 83 29 1 0 1 9 0 0 1 0 1 0 0 1 0 
0 4 1 0 0 16 13 0 21 62 0 0 0 0 0 14 3 0 0 1 0 0 0 0 0 15 1 11 13 15 0 
0 0 35 37 0 0 0 19 24 0 0 0 1 55 68 0 0 0 0 4 8 1 9 27 0 40 50 0 20 2 
0 0 0 0 39 15 0 0 0 0 0 0 1 0 0 0 0 1 1 1 5 0 0 1 0 0 3 0 1 0 31 16 0 
1 14 4 1 31 12 3 42 4 32 63 1 1 0 0 2 6 0 71 73 1 0 41 38 87 33 0 1 36 
31 11 0 1 0 1 0 1 0 7 0 0 0 2 7 0 1 0 0 1 3 1 0 0 0 1 0 0 0 0 3 0 0 48 
48 0 0 0 24 26 1 0 1 72 77 0 0 26 38 0 0 0 0 0 0 16 60 31 0 1 0 1 1 72 
48 0 3 45 37 0 15 3 0 0 0 0 0 0 1 0 0 0 0 0 1 0 0 41 66 1 0 0 0 3 18 1 
22 4 0 3 14 5 0 8 38 27 26 22 1 1 0 0 1 0 24 49 0 18 18 0 0 102 92 14 
6 1 0 15 19 7 1 23 37 0 0 21 57 26 1 0 0 1 0 0 3 21 12 0 0 1 0 21 36 0 
0 0 1 0 1 22 0 15 15 0 5 2 1 0 0 0 0 12 39 90 4 21 24 0 0 0 36 31 48 0 
27 31 1 1 1 0 0 54 10 0 36 68 4 0 0 0 0 0 1 0 0 0 0 0 0 0 0 0 0 0 0 20 
37 0 0 0 0 0 3 0 21 38 0 1 0 0 1 0 56 60 9 2 0 0 0 1 2 1 24 38 0 2 2 1 
0 28 34 1 0 0 0 0 1 0 6 0 26 31 0 8 24 0 1 0 0 0 0 0 0 67 51 0 0 1 0 2 
14 4 0 8 1 0 0 7 0 0 0 0 3 1 0 0 0 0 0 0 26 74 17 0 1 15 14 0 0 69 127 
52 51 1 1 0 0 1 1 0 0 0 0 0 0 12 1 1 0 1 0 0 14 0 0 0 0 1 0 0 1 8 0 15 
0 0 0 0 0 0 0 0 32 54 1 0 0 0 0 0 0 20 11 1 0 1 0 0 0 0 8 3 0 4 1 0 1 
10 9 0 0 0 0 0 0 0 67 72 5 40 0 0 0 0 0 0 0 0 1 0 1 10 7 1 2 0 0 0 25 
24 0 38 6 1 0 0 0 0 0 0 0 0 0 0 0 0 0 3 0 0 0 18 20 6 5 0 0 5 15 27 28 
0 0 0 0 0 0 0 0 0 0 1 0 0 15 25 16 0 0 4 64 12 0 0 1 0 0 1 3 8 3 1 0 0 
0 0 0 0 0 0 0 9 14 0 0 0 4 4 0 1 0 0 0 1 0 0 27 9 0 1 0 8 1 18 12 1 0 
0 0 0 0 0 0 27 44 30 0 0 16 2 0 0 24 28 0 0 1 0 0 0 0 0 4 0 1 1 0 1 1 
4 0 0 0 9 2 0 0 0 0 0 0 1 6 3 0 0 5 0 0 14 12 0 2 6 0 0 0 0 0 0 0 0 1 
0 0 0 0 2 17 16 23 0 37 34 1 0 0 8 20 0 33 38 0 0 0 0 0 0 22 14 0 0 0 
0 0 0 0 44 20 2 1 2 13 1 1 1 0 0 0 1 1 0 0 0 35 10 1 0 1 38 11 45 37 1 
0 0 39 34 0 0 0 71 86 0 0 0 1 0 0 0 13 17 0 0 0 0 0 0 0 0 0 1 1 0 1 0 
0 0 0 0 1 4 0 0 0 1 0 9 3 0 0 0 31 34 0 0 0 7 1 1 0 0 1 0 0 3 1 1 0 0 
0 0 12 0 55 37 0 50 71 0 0 0 0 1 7 8 0 0 32 63 2 0 0 0 1 0 7 0 1 0 1 1 
3 8 50 27 1 1 0 4 20 0 1 0 0 0 0 0 0 0 0 4 8 1 31 4 0 5 2 1 0 11 1 0 67 
57 64 110 0 0 8 10 0 0 0 0 0 0 0 0 0 0 0 4 0 0 6 8 0 0 0 0 0 1 0 0 6 1 
0 0 0 0 1 0 0 1 2 0 1 0 66 66 54 37 0 0 1 1 0 27 53 27 0 0 0 0 0 4 0 1 
30 19 13 4 0 73 65 36 99 91 76 0 0 28 44 0 6 1 25 55 1 1 0 0 2 0 1 0 1 
17 3 2 53 22 0 0 0 0 0 1 15 62 0 0 0 0 5 41 13 0 0 25 106 36 16 0 25 77 
19 71 23 2 0 0 35 62 0 1 0 1 0 0 0 0 0 0 0 0 0 0 4 20 58 41 15 34 15 0 
2 0 1 0 99 63 0 2 3 0 0 0 0 0 0 0 0 1 39 60 0 0 62 40 1 0 0 0 0 13 34 
41 0 1 0 1 0 0 0 0 0 16 34 36 1 49 42 9 46 41 33 0 0 30 72 1 11 44 31 
34 19 3 1 0 0 1 0 0 31 50 0 13 1 13 0 17 8 0 0 13 84 64 0 0 0 1 37 59 
13 0 1 2 29 23 32 1 5 28 3 22 2 1 1 0 1 0 0 0 0 1 0 2 1 0 0 0 0 0 0 0 
0 0 95 69 0 22 58 6 20 1 0 35 91 55 0 0 1 0 0 0 0 1 0 1 0 0 75 111 0 37 
53 35 0 5 60 49 0 0 0 11 0 0 0 7 3 0 1 0 17 21 31 32 0 0 0 0 7 34 31 0 
0 0 0 0 35 94 50 25 0 0 0 0 24 74 0 0 5 4 0 4 0 0 1 43 79 52 0 8 52 7 
3 1 0 5 3 61 41 1 1 0 0 6 3 2 1 0 0 0 0 0 1 74 76 0 0 0 0 0 0 1 3 0 0 
0 0 0 0 0 0 0 0 0 0 1 15 1 5 0 1 47 0 0 1 0 0 1 1 0 0 0 0 1 0 7 1 0 0 
41 68 47 0 28 90 68 0 56 26 0 0 0 0 58 32 0 0 2 50 12 0 1 1 18 0 0 5 30 
26 1 0 0 59 67 0 0 0 0 1 6 11 0 16 54 0 0 4 0 0 0 0 0 0 0 25 15 17 30 
35 74 4 6 4 22 1 61 90 0 1 2 0 1 11 0 0 0 0 9 67 20 0 40 47 0 0 0 0 1 
0 0 0 0 0 0 0 0 0 0 29 30 31 4 0 0 0 0 0 0 0 0 1 1 0 47 24 69 48 0 0 0 
1 0 0 0 0 0 0 52 74 22 49 0 0 0 0 77 37 40 12 0 0 25 6 0 0 9 5 1 0 1 0 
2 5 0 16 8 0 0 0 0 56 58 29 13 0 0 1 0 1 0 1 0 88 127 0 0 1 0 0 1 0 0 
0 0 27 42 0 16 0 2 37 5 23 37 21 0 16 18 0 0 4 98 42 0 0 11 65 19 0 0 
0 1 0 0 1 0 0 0 4 3 2 2 9 20 0 0 8 22 28 0 0 0 0 0 0 3 1 0 27 10 0 29 
12 24 15 0 0 0 22 6 0 2 1 1 10 0 1 8 19 23 22 0 1 0 0 82 31 0 6 40 5 0 
0 0 0 0 0 0 0 3 12 1 1 1 0 0 0 14 33 30 5 2 0 0 1 2 2 0 0 1 94 128 0 0 
0 0 0 0 1 1 0 0 0 0 0 51 58 0 3 0 54 35 0 0 2 2 0 0 1 82 34 0 4 1 0 0 
0 5 22 0 1 1 1 0 0 0 6 1 0 1 31 58 1 15 0 9 18 0 0 1 0 1 0 0 0 0 4 1 0 
114 85 0 1 1 0 2 30 0 9 28 0 0 0 0 0 0 0 8 28 1 19 4 0 0 0 0 1 4 0 0 0 
0 0 0 0 0 0 0 0 1 1 0 1 3 0 0 2 3 0 0 0 0 1 8 13 23 47 10 1 0 2 1 0 0 
0 0 2 1 1 0 0 0 0 102 115 0 43 1 0 0 21 3 1 1 0 1 0 0 0 0 3 0 0 0 1 1 
3 0 1 48 51 0 0 0 0 3 1 1 1 1 20 46 0 0 0 0 1 0 0 0 0 0 6 9 0 0 0 96 70 
0 0 0 0 2 0 36 16 5 1 1 0 2 73 58 0 0 0 1 3 36 46 0 0 0 0 0 1 6 0 0 1 
0 1 1 1 6 6 0 0 0 5 27 0 1 0 0 0 0 0 0 0 0 8 54 62 9 0 0 0 0 0 0 0 0 1 
7 23 0 0 2 0 50 67 7 47 0 45 67 0 1 0 0 14 17 2 8 0 0 1 0 0 1 0 0 0 0 
0 43 45 1 0 0 0 1 1 0 0 0 2 2 0 0 0 0 0 0 0 0 0 0 3 8 0 34 41 0 0 5 0 
65 51 0 0 44 21 0 0 0 0 21 71 51 1 0 0 0 0 28 38 0 0 0 0 0 8 24 0 1 4 
54 65 1 0 0 0 0 0 42 21 0 0 1 23 23 3 0 0 0 10 8 0 0 0 1 0 0 0 0 2 0 21 
21 0 4 16 14 1 37 35 1 1 2 0 0 32 50 1 0 0 0 26 32 6 0 1 0 13 43 0 0 0 
0 0 0 0 0 0 0 0 0 1 0 0 0 1 0 0 0 8 21 0 0 1 0 0 1 0 0 0 0 0 18 24 0 11 
13 0 22 18 35 1 23 19 0 0 0 0 0 0 1 78 42 0 0 1 1 0 0 1 0 0 0 0 0 1 0 
0 68 80 0 0 0 0 0 1 58 31 0 0 0 9 5 1 0 0 0 11 11 1 1 0 1 0 0 0 0 0 0 
2 2 0 0 1 3 1 5 5 7 13 0 0 0 0 1 4 0 1 1 0 0 0 90 83 0 1 135 73 0 1 1 
0 0 0 0 0 0 0 1 0 1 0 0 1 0 0 1 0 0 0 1 0 0 0 0 0 0 0 0 21 47 0 0 33 30 
0 0 1 37 0 30 39 0 5 1 0 0 0 2 83 36 0 0 31 45 1 0 0 0 0 0 0 0 1 1 1 0 
1 20 35 44 0 0 0 0 1 1 0 1 0 1 0 0 1 1 0 1 1 7 3 0 0 0 0 1 0 0 0 1 0 0 
0 1 0 0 0 18 29 0 0 0 0 0 0 0 0 0 0 0 0 90 169 126 92 169 137 102 81 1 
1 1 0 0 1 0 0 0 0 1 0 0 0 69 86 0 83 28 0 0 1 0 1 0 0 0 0 1 4 41 25 25 
51 0 3 0 0 0 34 43 0 1 5 3 0 0 0 1 0 0 0 1 2 42 23 4 10 0 4 0 0 63 40 
0 30 20 0 0 30 43 1 0 1 0 0 0 0 0 0 0 0 0 21 12 0 0 0 43 35 0 19 0 0 0 
0 0 0 0 0 0 1 0 0 0 1 0 0 0 1 1 0 0 0 1 0 30 8 1 1 47 167 177 169 167 
160 171 98 0 5 40 8 0 0 0 0 58 33 0 0 6 1 45 57 0 111 38 11 32 1 0 0 0 
0 1 0 0 0 27 85 27 45 52 19 0 1 0 12 15 0 0 0 1 2 1 0 0 4 9 0 1 1 10 82 
30 0 21 31 0 0 85 60 0 50 36 1 0 0 16 22 0 0 30 16 0 0 0 1 0 0 0 10 57 
13 0 0 6 6 4 20 0 0 0 0 0 2 25 1 0 0 0 0 1 0 0 0 2 4 0 0 0 0 0 1 27 31 
19 59 104 165 165 169 152 135 134 118 70 0 47 12 11 0 1 1 37 18 1 0 0 
0 0 0 7 0 19 43 28 18 47 58 0 16 18 0 0 0 1 26 10 22 44 9 11 1 0 0 22 
20 1 0 0 0 0 0 1 20 38 12 14 0 0 25 10 0 2 4 0 1 0 1 1 0 0 0 1 0 28 29 
0 0 60 34 0 0 0 0 0 0 0 1 1 3 0 0 1 0 0 0 0 0 0 0 1 0 10 0 0 0 0 0 1 0 
0 0 10 14 1 0 0 0 12 21 0 23 29 127 176 172 164 156 153 167 183 217 129 
0 1 1 13 2 0 0 0 0 0 0 0 0 0 0 1 1 57 82 1 71 82 0 0 38 40 0 0 0 0 5 30 
0 0 0 3 1 119 73 34 39 0 0 33 21 0 0 0 1 3 5 4 0 0 17 16 1 1 0 0 0 0 0 
2 0 0 0 1 1 0 0 0 11 19 35 6 0 0 0 0 0 0 43 121 14 0 0 0 25 22 0 0 3 0 
0 0 0 0 0 1 0 0 3 5 0 1 0 0 0 0 0 0 1 50 72 1 0 1 0 122 172 164 178 228 
226 196 254 181 1 0 1 0 0 39 35 22 67 2 1 0 0 1 0 0 0 1 3 0 10 11 0 0 
0 0 0 2 0 0 12 33 2 4 1 0 0 79 65 43 1 4 0 82 53 5 0 0 0 1 32 39 0 0 0 
0 0 0 1 0 0 1 0 1 0 0 1 0 1 0 0 0 0 3 80 21 0 0 0 0 0 0 26 83 5 0 0 0 
41 35 0 0 2 0 1 0 0 0 1 1 4 3 1 0 20 63 0 0 1 0 0 53 34 1 11 0 0 0 41 
150 175 161 179 237 247 182 168 135 43 0 0 1 0 56 52 0 20 0 1 10 32 30 
7 3 1 0 1 0 0 0 1 1 0 1 9 0 0 0 0 0 0 0 3 6 2 0 33 45 15 51 24 16 0 0 
0 0 0 0 10 13 0 0 0 1 0 1 0 0 0 0 3 0 0 14 0 0 1 75 68 0 0 3 69 12 0 0 
0 1 0 0 0 1 0 0 0 0 0 1 0 0 0 0 0 1 0 0 1 0 0 0 0 0 8 40 3 0 0 0 0 69 
42 0 0 31 8 0 101 157 163 164 173 176 176 167 157 136 0 0 0 0 0 64 13 
4 17 5 42 7 12 4 0 9 0 0 0 1 3 2 3 2 0 17 55 2 0 20 22 35 2 0 32 60 0 
1 0 0 6 10 6 0 0 1 1 0 0 0 1 1 1 0 1 0 0 0 0 1 0 0 0 116 116 0 0 0 0 31 
25 0 1 0 0 1 13 0 0 0 9 2 12 1 0 0 0 0 0 0 0 1 0 1 0 28 16 0 0 1 0 1 0 
0 2 26 4 24 27 1 3 1 0 0 0 4 0 3 23 14 134 169 163 171 170 175 173 163 
51 1 0 1 1 15 0 17 35 0 16 0 0 0 0 1 50 21 0 6 1 0 0 1 0 3 15 0 7 27 17 
38 1 0 4 12 1 0 0 7 15 0 0 0 0 0 0 0 0 0 1 0 0 0 0 0 1 1 1 1 1 0 1 94 
88 0 1 0 1 0 1 1 0 68 79 1 16 0 0 0 5 3 23 0 1 0 0 1 0 0 4 21 0 0 0 66 
42 0 0 0 0 0 0 1 0 0 0 42 51 13 4 0 0 0 1 0 0 2 12 53 132 142 163 174 
173 164 117 159 65 0 0 0 0 1 0 0 0 0 1 0 1 0 1 1 117 56 15 45 0 0 0 0 
0 75 118 0 4 5 0 0 19 0 1 1 0 0 0 1 11 0 0 0 65 9 0 0 23 3 0 0 0 0 0 0 
0 0 0 0 0 0 3 1 1 1 13 6 1 0 0 1 0 44 51 0 0 1 7 7 0 3 1 0 0 0 0 0 0 0 
7 27 1 9 3 0 19 44 0 0 0 0 0 0 0 0 0 0 40 47 0 27 29 0 0 0 0 0 0 0 0 90 
136 153 167 167 154 111 18 0 0 1 41 35 2 2 0 1 53 16 1 1 0 2 13 2 2 21 
1 0 0 0 0 24 43 0 0 0 0 0 6 1 0 0 0 0 0 0 12 3 14 91 131 27 0 0 21 51 
0 0 0 0 0 0 0 0 0 0 0 0 0 0 0 0 9 3 0 0 0 0 1 1 0 0 1 0 45 47 0 4 5 0 
0 0 0 0 0 0 0 36 39 0 0 0 0 3 1 1 0 1 0 0 0 1 1 0 4 0 0 53 55 1 0 0 0 
0 0 0 0 0 0 67 118 164 119 31 1 1 29 22 89 79 0 4 0 6 63 12 0 0 0 6 3 
1 0 0 0 0 0 0 1 0 0 0 0 0 0 0 0 0 0 0 1 0 0 0 0 0 8 49 29 11 0 0 18 52 
0 0 0 0 0 0 1 0 0 0 0 0 1 0 2 0 44 25 0 0 0 0 0 0 0 0 0 0 1 1 0 0 0 0 
0 0 0 0 0 0 0 50 53 0 3 0 0 1 0 0 0 0 1 0 34 18 0 0 0 0 2 0 1 21 30 16 
0 24 38 1 1 39 151 176 154 157 130 90 13 0 23 49 35 0 0 1 3 0 0 27 15 
0 1 1 1 1 0 0 25 16 0 1 0 0 0 0 0 0 0 0 0 35 12 0 0 0 0 1 0 1 0 1 37 16 
0 0 1 80 24 0 0 0 0 0 0 0 0 20 2 1 0 0 9 8 4 2 0 0 1 1 0 0 0 0 1 10 36 
33 0 0 0 1 2 1 0 0 32 27 1 0 3 3 5 1 0 0 1 0 0 1 1 0 14 5 0 2 2 1 0 0 
36 53 50 57 43 8 10 0 0 120 210 194 171 162 160 169 125 1 0 18 31 1 11 
9 1 3 0 13 8 0 1 0 0 5 4 0 43 30 0 1 0 24 32 0 0 0 11 1 0 85 36 1 1 0 
0 2 49 3 0 0 0 1 11 0 0 45 8 0 0 0 0 0 0 0 0 20 4 0 0 0 0 0 0 0 0 0 0 
0 0 0 0 0 46 144 52 34 0 0 1 7 14 0 0 1 25 22 0 0 1 0 0 0 0 0 11 0 1 0 
0 1 0 0 1 1 1 0 43 92 145 154 134 86 56 50 3 0 0 143 204 188 178 159 169 
171 138 0 0 0 0 44 20 0 0 1 0 0 0 0 0 0 1 1 0 0 0 0 0 0 0 15 24 0 0 1 
43 11 0 2 0 0 1 0 0 1 42 3 0 0 0 13 40 0 1 0 3 3 0 17 1 2 0 1 0 0 0 0 
0 0 1 0 0 0 1 0 0 0 0 0 0 0 46 80 0 0 0 0 0 0 0 0 0 0 0 0 0 0 9 15 0 0 
6 30 24 0 0 0 0 0 0 0 1 0 0 109 227 207 181 180 165 165 105 55 39 0 0 
153 200 184 179 162 160 163 121 0 1 0 0 78 37 0 2 33 52 70 17 26 0 0 11 
27 0 0 0 0 0 0 0 0 0 0 0 0 2 0 0 0 1 0 1 46 44 1 46 1 0 0 1 87 78 24 1 
0 22 16 5 53 1 1 0 0 0 0 1 0 0 1 0 0 0 1 1 0 0 0 1 1 0 0 84 94 0 0 0 1 
0 0 0 0 0 0 0 0 0 0 8 11 1 0 14 40 0 0 0 1 1 0 1 0 69 21 0 168 255 232 
178 225 216 177 168 73 53 0 0 161 201 184 172 166 155 157 124 1 0 0 0 
114 76 1 9 61 30 24 70 64 0 1 2 9 34 24 0 0 0 19 1 1 0 5 0 0 17 1 1 0 
0 0 0 38 36 0 41 1 0 0 0 23 31 40 1 1 0 0 0 0 0 1 1 0 0 0 0 0 0 0 0 0 
0 0 1 0 0 0 0 1 0 1 9 0 0 1 0 0 0 10 5 0 0 0 1 0 0 0 0 1 0 0 0 0 0 0 0 
0 0 1 12 60 76 22 0 145 208 180 197 255 255 185 181 109 46 1 1 170 191 
184 182 165 154 157 133 0 0 0 0 27 29 29 0 0 0 0 3 2 1 0 0 0 24 17 0 0 
0 0 0 0 0 29 35 0 10 0 0 1 0 0 0 0 0 0 0 0 1 12 19 26 12 0 2 1 0 0 0 42 
53 0 1 0 0 0 0 0 0 0 0 0 1 1 0 0 0 0 0 0 0 0 0 0 0 0 0 1 1 35 17 1 0 0 
5 20 0 0 0 0 0 0 0 0 0 1 0 0 0 0 12 50 0 0 2 155 163 159 180 224 219 177 
185 117 38 0 0 175 192 187 181 165 152 164 139 0 1 0 0 0 2 1 1 0 0 1 0 
0 0 0 1 1 0 0 0 0 0 39 47 0 1 13 18 0 0 0 0 0 0 0 0 0 0 1 0 1 0 11 17 
8 0 1 3 3 0 1 1 18 25 1 0 0 0 0 0 1 0 0 0 0 0 4 3 0 0 0 0 1 0 1 0 1 0 
33 33 0 0 1 0 0 0 0 4 17 0 6 1 0 0 1 1 0 0 0 0 0 0 0 0 0 0 0 0 144 164 
175 180 172 171 179 176 101 33 0 14 179 196 187 181 166 152 150 142 27 
0 0 0 3 4 0 0 0 0 1 1 0 0 0 0 0 0 0 0 0 1 19 25 0 0 0 0 0 0 0 0 0 1 1 
0 0 0 0 1 0 0 0 0 0 49 48 0 0 1 0 0 0 0 0 0 0 0 0 0 17 38 1 0 0 0 1 0 
0 0 0 0 0 0 0 1 0 0 25 22 1 0 0 0 0 0 0 1 0 17 2 0 0 0 0 1 0 0 1 0 0 0 
1 0 1 0 56 0 86 153 172 181 182 180 183 153 46 5 1 27 184 196 192 164 
167 160 141 166 47 0 0 0 0 0 0 0 1 88 39 18 2 1 0 1 0 1 0 0 0 1 0 0 0 
1 0 14 28 1 0 0 1 0 0 0 1 0 0 0 0 0 25 39 37 39 35 43 70 0 0 21 36 0 0 
0 0 0 0 0 10 26 0 0 1 0 0 0 0 0 0 0 0 1 0 0 120 80 0 0 0 0 0 0 0 0 1 1 
0 2 0 0 0 0 0 0 0 0 0 0 0 0 0 0 1 55 74 20 1 107 166 175 178 176 148 82 
0 0 0 39 189 195 199 160 166 163 166 176 62 0 0 0 0 0 0 0 1 47 18 31 3 
0 0 0 0 0 0 1 1 0 0 0 0 1 0 21 37 0 2 0 0 0 1 1 0 10 70 3 17 4 24 27 8 
0 0 45 72 0 0 13 23 0 0 1 1 1 2 0 0 0 0 0 0 1 0 0 0 34 12 1 0 0 1 1 57 
34 0 0 2 0 0 0 0 0 1 0 0 1 0 0 0 3 0 0 1 8 1 0 0 0 1 0 0 38 10 1 0 78 
174 177 172 166 80 0 2 0 1 48 190 194 204 167 166 164 189 179 60 0 0 0 
0 0 0 0 0 0 1 0 0 0 0 0 0 0 0 0 25 5 0 0 0 0 0 0 49 53 0 30 54 0 1 1 0 
5 43 1 45 27 0 0 0 6 1 0 0 0 0 0 0 0 0 0 0 0 0 0 0 0 0 0 0 0 0 14 30 25 
8 1 0 0 0 1 0 0 0 0 1 0 0 0 0 0 0 1 0 0 0 1 0 2 0 0 3 14 1 0 0 0 0 0 0 
2 0 27 33 153 196 192 192 196 154 0 0 0 0 58 196 192 199 167 168 166 185 
180 67 0 0 0 0 0 0 0 0 1 2 1 0 3 0 0 0 0 0 0 36 10 0 0 6 4 1 0 56 59 1 
32 49 0 0 2 0 0 0 1 3 41 1 0 0 3 0 0 0 1 0 0 0 0 0 0 0 0 0 1 0 0 0 1 0 
0 0 24 46 0 3 0 0 1 3 0 1 1 0 0 0 0 0 1 0 1 9 0 1 0 0 43 29 1 0 0 0 3 
36 3 0 0 0 0 0 0 0 1 44 179 193 191 191 194 184 57 0 16 0 76 199 192 195 
127 152 131 168 190 97 1 0 0 0 0 0 1 0 3 0 0 1 13 1 0 0 1 0 0 0 0 0 0 
52 44 1 1 1 1 2 0 35 37 0 0 0 0 1 0 12 68 2 0 27 74 0 0 1 0 0 1 1 0 19 
47 0 1 0 0 1 0 0 0 0 0 2 0 0 0 13 0 0 26 43 1 1 0 0 0 0 0 0 0 0 0 1 3 
0 1 1 46 29 0 1 0 0 2 26 2 0 0 0 0 20 35 1 0 82 187 193 191 193 188 189 
90 1 0 0 83 201 192 187 71 103 74 137 195 115 0 0 0 0 0 0 0 0 0 0 0 0 
0 0 0 0 1 0 0 0 0 0 0 5 3 0 0 1 0 0 0 70 68 0 10 10 0 0 0 4 32 0 1 8 30 
0 0 2 4 0 0 1 0 17 50 0 0 0 2 3 0 0 0 0 0 0 0 1 0 0 0 1 5 3 0 1 4 2 3 
1 0 0 0 0 0 0 6 0 1 1 0 40 34 0 0 0 0 0 0 0 0 0 2 8 17 0 0 101 191 191 
191 193 171 188 111 0 0 1 88 202 196 180 75 82 80 128 195 128 1 0 0 0 
0 1 0 0 0 0 1 0 1 0 1 0 0 0 0 0 1 0 0 1 0 20 0 13 78 10 1 0 0 0 8 6 0 
12 19 0 0 1 0 0 0 0 0 6 11 0 0 0 0 1 0 0 0 0 0 2 3 0 0 0 0 1 0 0 0 1 0 
0 0 0 1 0 0 3 29 1 0 6 0 0 0 0 1 1 1 0 0 42 36 9 5 0 0 0 0 0 0 0 3 0 0 
0 1 80 172 192 193 193 169 176 107 0 0 0 95 204 196 167 132 110 79 120 
189 141 0 0 0 0 0 0 0 0 0 0 0 0 0 0 0 1 9 13 1 0 1 0 0 0 0 36 5 13 76 
9 0 0 43 27 0 0 41 55 15 0 0 0 0 0 0 0 0 0 3 0 0 0 0 5 1 0 1 0 0 0 1 0 
0 1 0 0 0 0 0 0 1 0 0 0 1 0 1 1 1 0 0 1 0 0 0 0 4 1 1 1 0 1 5 30 6 1 0 
0 0 0 1 0 0 0 1 0 0 74 164 194 191 193 176 158 66 0 0 1 89 191 189 148 
168 129 76 124 182 88 0 0 0 0 0 0 4 11 0 0 0 0 0 0 0 0 18 22 1 1 0 0 1 
0 0 0 0 1 1 0 0 1 38 23 0 0 4 5 0 0 0 0 0 0 0 0 0 0 1 46 54 59 55 1 0 
0 0 0 0 11 8 0 0 0 0 1 4 3 0 0 0 1 1 0 0 4 31 0 0 4 1 1 0 0 0 1 0 0 2 
4 0 0 0 0 12 1 1 1 0 0 0 0 0 1 0 1 0 82 168 194 193 196 179 167 67 0 13 
1 35 141 185 124 171 127 72 130 186 134 0 1 0 0 0 0 5 13 0 0 0 0 0 0 0 
0 0 0 0 0 1 0 7 9 1 0 2 22 36 0 0 0 0 0 0 0 0 0 0 0 0 0 0 0 0 0 0 1 1 
28 35 55 50 0 0 0 0 0 1 9 36 2 0 0 0 0 0 0 0 0 0 0 0 0 0 4 31 0 0 1 0 
0 3 22 1 0 1 0 0 0 0 3 1 0 0 19 35 0 0 0 0 0 0 0 0 0 0 75 169 190 192 
195 179 166 66 1 29 18 55 181 163 97 174 127 73 128 185 149 0 0 0 0 0 
0 0 0 0 0 0 1 0 0 0 0 0 0 1 0 0 0 1 0 0 0 0 43 66 0 0 0 1 0 0 1 0 0 0 
0 0 0 6 4 1 0 29 23 0 3 0 0 1 1 0 0 0 14 15 10 92 13 0 1 0 0 0 0 0 0 3 
2 0 0 0 0 0 0 1 0 7 40 6 39 0 0 0 0 0 1 0 0 0 0 27 14 16 18 2 0 1 1 0 
0 0 0 0 64 162 195 191 195 177 163 64 0 0 0 78 143 104 92 172 130 73 133 
181 128 0 0 0 0 0 0 0 0 0 0 1 5 0 0 0 0 0 0 0 0 0 0 0 0 0 0 0 0 21 23 
0 0 1 35 28 0 0 0 0 0 0 0 10 4 0 0 79 67 1 0 0 0 0 0 0 0 0 4 7 1 5 3 0 
0 0 0 1 20 7 0 9 5 0 0 0 1 0 1 0 0 2 17 12 19 0 0 0 0 0 0 0 0 0 0 50 20 
0 0 1 1 0 0 0 1 0 0 0 52 158 194 191 193 180 159 56 0 0 27 136 117 76 
97 174 133 74 140 177 133 0 0 1 0 0 0 0 0 0 1 0 0 0 1 0 0 1 0 0 0 0 0 
0 0 0 1 1 0 34 31 0 0 0 60 49 0 0 0 0 0 0 0 0 0 0 0 1 0 2 0 0 0 1 0 0 
0 0 0 0 0 0 0 0 13 9 0 0 1 0 0 0 0 0 0 0 0 0 0 0 0 0 1 4 9 0 0 0 0 1 0 
0 4 3 1 0 1 0 0 0 0 5 0 33 25 0 50 24 42 161 197 195 198 183 157 53 0 
1 33 126 125 85 101 177 133 74 149 170 149 1 0 0 0 0 0 1 0 0 2 3 0 0 0 
0 0 0 0 1 0 1 0 0 0 0 0 0 0 0 1 1 2 0 0 0 1 5 5 0 0 0 0 0 0 0 0 0 0 0 
0 36 20 0 0 0 0 0 0 0 0 0 0 0 27 19 0 0 0 0 0 0 0 0 0 1 33 3 0 0 0 30 
20 0 0 1 0 0 0 14 20 0 50 55 0 1 0 0 0 0 0 0 0 35 28 0 52 23 65 133 138 
136 138 132 165 62 0 0 0 129 161 72 107 178 134 74 148 175 152 37 0 0 
0 0 11 9 0 0 2 3 0 0 0 3 1 0 0 0 0 0 22 4 1 13 0 0 0 0 1 3 2 1 0 0 0 0 
0 14 0 43 33 0 0 0 0 0 0 0 0 22 9 0 24 20 0 0 0 0 0 0 0 0 0 0 0 0 0 0 
0 0 28 3 0 1 37 4 0 0 0 16 10 0 0 0 11 3 1 19 25 0 3 3 2 0 0 0 0 0 0 0 
0 0 0 1 0 1 72 97 5 4 5 58 165 88 1 0 0 164 154 68 118 182 135 72 149 
182 155 45 0 0 0 0 7 4 0 3 1 1 0 0 0 0 0 0 0 0 0 0 15 1 14 40 1 0 1 35 
3 0 0 0 0 0 0 33 61 0 0 71 54 0 0 0 0 1 0 0 0 0 1 0 48 43 0 0 0 0 0 0 
0 46 20 0 1 0 0 0 0 2 59 11 1 1 1 0 0 0 0 0 0 1 0 0 5 1 0 8 1 0 0 2 12 
0 0 0 0 0 0 0 0 0 1 1 0 1 32 51 38 21 35 40 79 39 0 0 27 156 143 80 92 
114 85 82 93 119 133 54 0 0 0 0 0 0 0 0 3 7 0 0 0 0 1 0 0 1 0 0 1 0 0 
0 1 0 3 51 6 0 0 1 0 0 0 6 19 0 0 0 1 1 1 0 0 0 0 1 0 0 0 0 0 0 0 0 0 
0 1 0 0 63 31 0 0 0 0 0 0 1 0 0 0 1 0 0 3 1 0 0 0 0 0 1 0 0 0 25 14 0 
0 0 0 0 0 0 0 0 0 0 0 0 0 0 0 0 0 21 41 22 36 36 4 0 1 0 14 82 70 84 58 
0 41 89 26 0 0 2 0 0 1 0 1 0 1 0 36 58 1 0 0 0 0 0 5 17 0 1 0 0 0 1 0 
0 0 0 1 1 0 1 1 0 1 0 1 1 1 0 0 0 0 1 0 0 0 0 0 1 0 0 0 0 0 0 0 0 0 0 
0 0 0 0 0 0 1 0 0 0 0 0 0 0 0 0 0 0 0 0 0 1 0 17 6 0 0 0 0 0 0 0 0 0 0 
0 0 0 0 0 0 0 0 0 0 1 0 23 41 19 36 36 2 0 0 0 0 1 14 87 59 0 45 86 34 
0 0 0 0 0 0 0 0 0 0 0 1 1 0 1 15 4 1 0 7 25 0 0 0 0 0 0 0 0 0 0 1 0 0 
1 0 0 0 1 1 0 0 0 1 0 0 1 1 0 0 0 0 0 0 0 0 0 0 1 9 0 0 0 0 0 1 0 0 0 
0 1 0 0 0 0 0 0 0 0 1 0 0 1 24 2 0 12 15 9 0 0 0 2 1 0 0 0 0 0 0 0 0 0 
0 0 0 0 0 0 0 23 40 15 34 34 2 0 1 0 0 0 27 88 60 1 46 87 35 0 0 0 0 1 
0 0 0 0 0 0 0 0 0 0 4 0 0 0 0 0 0 0 0 0 0 0 0 0 0 0 0 1 0 1 0 0 0 0 0 
0 0 0 0 0 1 0 0 0 0 0 0 0 0 0 0 0 0 3 18 0 0 0 0 0 0 0 0 1 0 0 0 0 0 0 
0 0 0 0 0 0 1 0 23 2 1 0 0 0 1 0 0 0 0 0 0 0 0 0 0 0 0 0 0 0 0 0 0 1 0 
21 39 12 34 31 1 0 0 0 0 0 27 88 59 0 47 87 31 0 0 0 1 0 0 0 0 0 0 0 0 
0 0 0 0 0 0 1 0 0 1 0 1 1 0 0 0 0 0 0 0 0 0 0 0 0 0 0 0 0 0 0 1 3 0 0 
0 0 0 0 0 0 0 0 0 0 0 0 0 0 0 0 0 0 0 0 0 0 0 0 0 1 9 4 0 0 15 4 3 0 0 
0 0 0 0 0 1 0 0 0 0 1 1 0 0 0 0 0 0 0 0 0 0 0 1 1 0 0 0 20 39 11 35 30 
1 0 0 0 0 1 30 87 56 0 44 85 31 1 0 0 0 0 0 1 1 0 0 1 0 0 1 0 0 0 0 0 
0 0 0 0 0 0 0 0 0 0 0 0 0 0 0 0 0 0 1 1 1 0 0 0 0 2 4 0 1 0 0 1 0 1 0 
0 0 0 0 0 0 0 0 0 0 0 0 0 0 0 0 0 0 0 19 9 0 0 31 16 25 0 0 0 0 0 0 0 
0 0 0 0 0 0 0 0 0 0 0 0 0 0 0 0 0 0 0 0 0 1 0 19 40 12 35 32 0 1 0 0 0 
0 36 89 52 1 42 85 27 0 0 1 1 1 3 0 0 0 1 0 0 1 0 0 0 0 0 0 0 0 0 0 0 
0 1 0 1 2 0 0 1 0 0 1 6 0 8 14 2 6 0 0 2 5 20 0 0 0 0 0 0 0 0 1 0 0 0 
0 0 1 0 1 0 0 0 0 1 1 0 1 1 0 0 0 0 0 0 0 1 0 0 0 0 0 1 0 0 0 0 0 1 0 
0 0 0 0 1 0 0 0 3 3 2 0 0 0 0 1 1 16 41 12 34 31 0 0 0 0 1 0 36 88 51 
0 41 86 28 0 0 5 19 9 12 11 0 0 3 0 0 1 0 0 0 0 1 0 1 1 3 5 4 0 0 0 2 
11 1 12 17 22 15 10 11 2 1 3 12 23 12 2 11 32 44 33 0 3 3 1 0 1 1 1 0 
0 0 0 0 1 0 0 0 0 0 1 0 0 0 0 0 1 0 1 1 0 0 0 0 1 0 1 1 0 0 0 1 5 9 3 
15 6 3 1 1 2 8 10 12 3 4 5 0 0 1 1 0 0 1 19 40 10 32 30 0 1 0 1 0 0 38 
86 49 0 36 77 25 1 3 23 42 37 6 8 14 23 32 15 9 9 1 2 0 0 0 0 11 9 4 12 
6 3 22 35 13 29 38 40 28 29 22 7 19 8 3 7 2 5 4 8 22 22 26 35 16 2 3 0 
6 10 1 0 2 0 1 1 0 0 0 0 0 14 34 14 11 14 2 2 5 3 0 4 1 1 0 2 12 4 0 2 
1 1 13 27 7 15 25 17 15 14 28 22 23 17 24 37 35 28 7 1 3 5 5 3 13 17 28 
33 18 15 29 26 3 3 5 20 23 8 41 102 47 0 42 125 36 1 18 27 35 41 33 15 
22 46 42 40 37 18 7 21 25 31 21 5 19 14 0 2 10 14 25 37 32 36 48 35 18 
11 15 24 33 27 35 38 35 33 27 31 33 28 9 0 15 10 10 4 13 7 2 0 12 12 1 
1 4 1 2 24 15 18 49 45 47 41 32 18 22 19 9 14 27 34 16 6 21 7 2 33 40 
31 30 38 32 36 43 45 20 0 29 49 45 24 21 49 47 22 12 12 2 5 10 24 35 39 
34 15 120 54 44 53 33 34 27 29 44 44 66 177 61 5 59 162 49 1 22 19 4 0 
20 17 4 46 49 43 37 36 37 40 43 45 42 29 31 10 1 4 3 1 0 1 19 17 17 16 
28 24 7 22 39 42 48 44 33 44 51 46 48 47 43 26 27 40 34 14 7 26 5 7 17 
13 25 30 39 36 22 29 20 4 41 52 42 35 42 29 24 42 43 41 35 41 39 30 30 
15 26 46 47 44 47 44 49 49 28 27 32 22 17 48 39 34 30 41 46 21 23 3 1 
9 24 35 36 28 55 162 200 97 160 135 12 42 42 47 49 45 43 72 36 28 26 18 
33 28 20 40 37 16 22 28 24 44 51 47 44 43 46 46 43 45 43 45 44 28 15 27 
35 38 27 3 23 36 26 2 12 21 20 46 55 52 49 36 35 51 51 53 54 29 33 46 
46 42 17 21 29 36 26 26 31 13 42 36 44 46 37 31 20 29 35 36 37 33 32 39 
39 51 46 39 22 32 46 50 38 25 28 41 45 38 48 42 27 39 43 40 40 34 33 47 
53 41 18 31 43 48 42 19 9 19 32 34 33 7 133 170 151 180 210 147 3 36 46 
47 42 14 23 28 36 28 23 35 34 36 31 14 9 32 39 42 46 50 47 46 46 46 47 
47 46 47 46 46 47 45 49 46 26 29 41 35 44 48 46 39 30 37 44 47 41 37 38 
33 46 51 51 45 41 33 39 47 49 33 38 41 36 40 49 51 44 33 30 25 31 43 41 
40 41 33 33 36 38 23 22 38 31 43 41 35 41 41 31 40 42 42 41 51 51 50 51 
45 40 44 50 52 38 37 38 41 43 36 43 48 50 53 52 42 39 41 34 34 38 44 45 
20 58 122 84 45 47 49 47 47 44 40 41 38 38 38 37 42 42 39 42 40 33 45 
49 49 50 49 48 47 45 47 48 49 50 49 50 49 49 49 47 37 28 39 46 50 51 38 
27 43 47 42 41 48 38 32 39 49 50 52 51 30 34 50 52 49 38 38 46 35 47 50 
48 51 51 49 40 45 49 49 26 31 43 26 36 46 48 34 21 34 32 36 47 36 45 49 
41 47 48 45 44 48 42 38 44 49 47 39 45 52 49 46 42 44 42 28 47 46 40 50 
53 52 55 43 32 40 42 47 51 52 42 20 28 47 50 51 49 49 48 50 51 51 50 49 
51 52 52 51 51 50 50 51 52 51 51 51 50 48 49 49 51 53 51 51 47 50 53 46 
39 35 45 52 51 50 51 37 39 50 52 34 14 44 46 48 49 51 48 50 52 45 49 51 
51 50 45 48 48 17 16 32 30 42 52 57 
