P2
64 64
255
1 20 6 0 0 0 21 22 0 4 10 0 0 0 0 35 32 0 0 0 0 0 4 1 1 0 0 0 0 0 0 0 
0 0 0 3 5 28 89 14 0 0 1 0 0 1 1 0 6 42 0 0 0 0 0 16 32 0 0 1 0 0 0 1 
0 28 11 0 0 0 8 7 0 14 29 0 0 0 2 9 5 0 0 1 0 1 0 24 46 0 0 0 0 0 0 0 
13 2 0 0 3 4 20 12 25 18 0 0 0 0 27 34 4 50 41 30 9 38 11 5 2 0 1 1 1 
0 0 1 0 0 0 0 0 3 5 0 0 0 0 0 12 31 0 19 4 0 0 47 51 0 1 4 15 1 0 0 1 
0 26 11 21 23 0 0 0 0 2 20 30 18 0 3 0 0 15 22 0 0 17 50 26 45 16 3 0 
0 3 0 12 4 0 0 0 1 0 0 1 0 0 0 0 0 0 0 32 68 21 33 17 0 5 17 17 0 0 0 
0 19 32 0 1 0 20 19 3 3 0 1 0 8 0 1 0 0 1 21 15 1 15 49 2 0 46 13 0 0 
4 1 1 0 0 2 1 1 0 0 0 0 0 0 0 0 0 0 10 7 0 0 0 0 9 33 20 0 17 6 1 0 0 
0 1 2 10 0 0 0 1 0 0 0 1 0 0 0 12 4 7 0 0 11 5 0 5 19 0 0 15 2 0 20 22 
1 1 37 54 9 0 0 20 8 0 1 1 0 0 1 0 0 8 7 1 1 1 0 1 0 0 4 16 1 0 0 0 0 
9 5 0 15 16 1 32 61 70 3 0 0 0 0 18 6 3 1 0 0 1 0 0 1 0 1 16 23 1 1 3 
10 6 58 74 0 13 0 45 19 33 14 32 8 0 0 0 0 25 12 0 0 0 0 0 0 0 1 18 4 
1 1 0 18 23 13 0 19 22 0 2 18 40 1 46 35 0 0 1 1 0 0 48 41 7 0 0 0 0 0 
1 12 0 11 26 12 3 13 0 0 0 1 35 1 40 17 34 29 18 2 4 23 20 14 0 2 0 0 
2 3 0 0 6 8 1 0 2 15 0 0 0 0 0 3 1 0 0 0 31 7 1 0 0 0 0 1 54 43 0 3 0 
0 2 13 0 1 31 37 4 0 1 6 1 0 0 1 27 16 0 0 19 69 68 38 23 22 1 0 0 2 14 
0 11 14 0 3 7 2 0 0 0 2 0 0 0 0 0 0 0 0 0 0 1 0 31 41 3 21 9 0 0 0 8 0 
0 0 0 0 30 17 13 39 26 0 41 12 18 0 0 9 29 12 1 1 1 0 1 22 7 10 7 33 62 
15 20 0 2 2 0 29 26 0 1 1 17 12 7 1 0 0 1 1 0 0 0 0 0 16 49 33 16 11 2 
1 0 3 0 40 70 0 2 0 28 58 20 4 0 1 24 6 36 1 0 1 10 25 0 8 8 0 1 0 0 1 
49 49 59 29 1 20 19 0 14 10 1 0 0 0 0 9 4 0 0 0 3 13 6 4 1 1 0 9 28 1 
43 38 0 0 0 0 0 26 46 2 12 0 0 23 20 12 0 0 0 52 25 0 0 14 16 19 0 1 42 
33 0 0 1 0 13 12 0 17 20 62 15 0 0 0 0 0 0 19 12 0 0 0 0 1 0 1 13 4 0 
0 0 1 0 4 2 8 1 0 4 3 0 0 0 4 8 0 5 15 7 1 12 11 0 63 40 39 8 43 23 0 
0 0 29 20 0 0 22 0 0 1 0 0 4 37 7 0 0 0 0 1 1 16 34 1 0 0 0 0 0 0 0 0 
20 9 1 31 8 3 4 0 0 1 0 1 0 9 27 53 28 4 25 40 1 3 24 21 0 0 52 19 15 
24 0 1 13 12 1 0 36 58 26 9 39 42 1 3 36 0 40 76 48 1 0 0 15 20 75 15 
0 1 0 0 0 1 0 0 20 9 1 37 17 0 0 0 3 0 1 2 0 2 1 17 18 1 22 24 29 21 16 
22 0 0 38 0 0 0 1 1 5 16 27 0 45 64 59 25 46 66 1 3 39 7 32 42 20 0 6 
2 0 3 2 0 0 0 0 0 0 0 0 1 1 1 32 4 0 0 0 0 4 0 1 48 33 15 12 5 5 3 1 16 
16 0 30 34 0 39 59 0 1 24 12 0 0 0 1 0 0 5 51 46 27 1 1 0 1 0 16 22 1 
0 0 0 0 7 23 1 0 1 0 0 0 0 0 0 16 56 31 2 0 1 15 8 4 3 0 65 44 28 21 0 
4 0 1 0 0 1 25 19 7 23 28 0 29 39 6 0 0 0 0 10 11 0 0 25 16 0 0 3 1 0 
2 20 0 0 0 0 0 0 0 1 22 46 1 0 0 1 4 0 8 26 19 0 1 13 16 8 5 6 10 0 1 
24 23 25 19 0 0 29 46 1 22 13 0 16 10 0 21 2 0 0 0 3 13 20 25 1 1 22 7 
11 0 22 30 1 1 0 2 37 7 1 2 0 4 4 8 30 14 1 18 22 9 0 1 0 0 38 39 17 0 
1 0 0 28 43 38 3 8 31 9 1 0 2 23 0 22 18 39 5 3 0 18 0 1 1 0 0 80 115 
1 5 0 2 15 7 1 0 9 1 2 0 0 18 2 1 1 0 3 3 1 4 19 1 46 34 2 1 17 60 2 26 
53 51 41 15 23 1 17 39 39 4 0 2 0 9 21 45 22 17 17 16 36 4 3 0 1 0 2 0 
6 16 37 58 46 19 24 40 24 47 28 1 9 32 22 5 0 0 0 2 1 0 4 16 0 9 35 25 
0 0 21 3 19 41 4 50 22 41 44 38 11 5 0 17 1 1 6 35 19 46 34 49 1 0 3 0 
1 13 14 1 1 0 0 0 14 1 15 4 24 32 52 57 35 22 20 18 14 29 0 26 33 1 5 
17 0 0 1 6 1 1 20 15 1 11 2 11 42 44 0 59 74 21 43 21 1 23 14 0 0 29 3 
10 16 0 8 1 2 32 0 1 15 23 22 0 0 0 20 42 34 27 27 27 0 37 37 42 34 20 
10 11 1 0 0 8 13 11 1 18 5 2 4 1 0 0 0 0 1 28 1 6 45 23 0 43 90 35 42 
17 26 0 0 8 54 9 3 10 12 0 28 28 0 20 14 0 25 14 25 2 2 0 39 26 6 31 15 
0 24 17 0 8 20 2 0 13 12 0 0 0 4 13 0 1 10 38 10 7 3 0 31 18 29 7 0 24 
19 7 13 1 12 0 0 1 1 1 18 23 27 0 19 24 40 4 0 0 0 0 17 1 35 13 40 71 
30 1 30 8 22 56 33 39 32 27 4 19 0 1 37 32 0 0 0 1 20 8 4 19 1 12 5 9 
16 4 4 0 54 88 19 48 23 11 28 0 18 24 40 20 0 9 45 1 0 0 10 71 31 14 2 
11 0 0 1 1 0 21 19 31 2 1 4 0 47 57 62 55 21 21 21 18 12 0 47 70 85 0 
3 16 1 14 21 27 0 0 4 5 4 0 47 12 39 80 30 52 65 3 11 2 51 39 44 43 1 
0 13 21 7 0 1 44 27 0 1 49 87 1 8 28 8 2 0 0 0 1 20 0 0 79 122 1 32 22 
0 23 20 69 23 24 48 1 7 12 0 27 23 1 1 1 10 1 0 0 37 46 12 0 92 114 91 
49 13 21 67 29 33 16 14 0 22 43 22 12 32 0 27 2 23 18 53 54 23 47 24 1 
0 0 4 0 0 0 40 74 108 23 65 49 1 14 4 40 27 0 0 0 0 0 3 0 1 1 14 9 4 0 
0 0 35 48 9 111 134 94 83 70 11 2 27 11 0 13 10 37 32 44 8 0 35 26 1 1 
35 42 50 104 14 21 54 3 1 0 18 10 0 0 123 101 33 19 73 56 0 8 4 31 5 1 
5 11 0 19 49 13 0 20 34 14 0 19 9 0 37 47 20 77 68 12 51 50 20 23 22 24 
0 0 0 24 30 4 1 18 0 18 5 9 1 11 13 0 5 1 0 0 0 0 0 6 15 4 82 75 26 34 
0 0 32 39 2 0 0 4 32 18 0 4 24 8 22 65 8 0 0 30 20 22 17 28 1 34 34 33 
37 38 55 30 0 0 4 0 0 0 20 36 20 32 25 66 12 0 0 0 5 10 19 5 1 8 39 1 
6 29 16 3 0 62 15 25 24 38 7 11 11 33 6 1 2 0 17 17 24 24 28 51 0 0 1 
0 35 38 0 10 22 31 29 35 36 61 23 20 0 1 2 0 0 6 66 56 0 0 10 14 0 0 2 
3 0 0 0 7 3 0 6 0 38 26 1 0 14 26 10 34 36 12 0 9 17 24 1 0 0 1 25 28 
15 6 0 0 10 7 12 8 13 14 32 53 0 5 11 60 24 40 40 0 18 2 3 0 7 11 17 33 
1 0 3 0 3 0 0 2 14 30 1 23 11 19 48 9 29 36 0 0 37 28 0 4 45 15 41 9 2 
0 0 0 0 0 0 0 35 16 0 2 16 23 0 0 30 37 7 1 0 15 27 17 16 66 25 1 11 12 
27 12 28 8 0 0 14 36 1 1 19 4 4 3 7 13 1 1 0 0 50 45 7 0 27 75 39 16 0 
0 0 0 6 2 11 0 21 19 0 0 0 5 5 0 0 0 13 26 0 1 6 14 0 0 9 4 2 6 10 0 0 
0 0 48 37 12 1 9 8 0 2 13 1 0 8 9 10 1 0 0 0 0 0 0 1 8 11 3 1 33 1 0 0 
1 17 21 40 35 35 3 13 20 34 3 0 5 4 0 0 21 27 0 6 0 4 0 0 0 11 28 13 18 
31 9 32 50 52 46 7 0 0 6 4 0 3 3 2 0 0 17 7 0 0 0 0 2 0 40 40 8 0 1 28 
7 0 1 0 3 23 22 50 52 66 15 34 23 38 32 0 3 10 4 24 21 17 18 5 39 44 0 
19 35 0 49 34 13 39 28 4 36 34 0 1 0 0 0 0 0 55 38 30 7 0 69 34 1 0 0 
0 0 57 49 47 15 42 20 24 16 0 29 4 15 24 15 3 1 23 3 24 44 48 13 0 12 
45 28 3 0 0 39 31 37 36 0 15 59 18 0 8 20 0 30 22 51 2 1 0 1 0 0 1 10 
28 8 9 2 8 24 3 22 34 1 0 0 17 25 55 28 49 39 43 25 1 23 1 4 0 0 4 3 3 
0 26 40 0 0 2 0 59 92 0 0 0 0 6 20 51 22 25 33 7 0 23 61 0 30 13 4 2 9 
0 1 1 18 25 10 17 0 0 0 0 0 38 71 9 1 15 8 2 1 21 14 7 6 30 42 0 3 3 0 
10 3 1 0 5 11 1 1 0 0 3 41 25 17 0 1 1 8 1 9 76 40 27 35 0 6 10 0 0 0 
0 1 7 39 5 0 0 3 11 13 0 0 0 0 2 0 39 53 12 34 15 25 1 0 53 33 1 10 29 
0 0 1 1 0 55 35 1 0 35 6 4 11 1 1 5 5 0 0 0 3 6 4 6 19 4 1 16 24 0 5 18 
69 47 85 9 1 0 1 0 0 0 2 22 15 5 0 0 0 0 17 21 11 10 21 22 25 0 0 3 55 
14 19 11 0 7 1 41 21 21 18 31 0 5 0 0 1 3 11 1 22 8 1 0 0 0 0 0 1 8 1 
0 0 0 11 0 126 157 156 109 0 18 0 8 30 0 14 54 67 31 6 10 1 0 8 48 40 
24 1 11 16 0 1 0 13 4 12 45 11 16 3 43 24 19 1 17 7 33 5 0 0 10 42 0 7 
7 1 0 1 8 0 1 0 0 5 1 0 23 6 71 154 168 164 179 94 0 3 7 26 1 1 0 19 49 
46 45 18 14 0 20 23 8 40 66 19 11 25 0 9 18 2 19 8 0 0 0 0 0 0 24 2 39 
32 0 0 22 70 1 16 22 0 0 0 1 1 0 11 29 0 5 34 37 0 49 157 177 223 202 
118 1 12 42 29 11 15 11 0 7 12 6 0 8 0 10 8 4 28 51 26 33 36 0 0 17 9 
1 0 0 1 1 79 44 1 43 15 35 27 0 0 5 0 0 1 2 0 1 23 1 0 0 7 23 22 9 31 
0 1 44 130 168 180 166 110 0 4 25 13 15 6 1 41 19 3 0 5 46 10 21 15 19 
17 0 11 0 0 1 0 0 1 0 0 0 0 0 57 30 0 0 0 50 25 4 14 5 1 0 1 2 18 4 33 
21 0 0 0 0 31 25 22 1 0 1 57 124 157 155 90 0 33 25 0 29 8 0 55 30 12 
0 12 63 7 1 3 0 0 0 0 30 81 3 24 16 0 1 1 0 1 0 0 10 18 0 0 0 0 0 25 0 
0 0 3 4 38 13 0 1 0 0 10 7 0 0 0 0 2 16 1 99 151 145 68 3 52 32 0 27 16 
1 0 0 15 8 1 0 0 0 15 26 0 0 5 15 38 0 33 36 0 0 0 0 10 0 1 4 2 0 0 1 
22 81 21 0 4 0 12 17 2 3 0 8 1 0 2 1 0 64 115 120 76 19 0 173 188 165 
147 9 9 26 0 14 17 1 2 1 16 6 3 19 1 17 22 32 0 10 31 0 10 37 10 18 8 
7 0 0 0 0 0 0 0 0 0 1 38 70 1 1 0 0 0 0 0 5 5 23 1 0 1 36 0 192 211 210 
165 65 25 176 184 162 138 2 29 72 13 41 47 28 0 21 5 0 1 1 8 7 0 0 13 
32 24 0 27 52 7 2 17 22 0 0 1 0 0 1 1 0 0 0 5 0 6 2 16 1 1 7 0 0 0 0 0 
0 8 42 23 162 185 226 187 94 30 179 186 162 141 20 0 22 8 0 0 3 0 6 4 
6 28 4 18 1 1 0 0 0 0 2 10 13 3 0 7 27 0 0 0 15 8 0 1 0 0 0 0 41 27 4 
1 0 0 7 2 0 0 0 0 0 0 10 31 124 173 177 166 58 45 185 182 160 147 47 0 
0 1 44 26 1 0 0 0 0 12 0 9 6 0 0 0 9 11 2 24 34 42 30 11 7 0 0 1 6 3 0 
0 13 10 0 1 67 18 0 0 0 1 0 0 0 0 1 0 0 1 27 22 73 174 176 99 0 58 188 
186 167 173 56 1 1 0 19 15 0 0 0 4 13 0 0 19 42 24 19 1 21 32 22 10 0 
28 21 3 3 0 0 0 0 0 0 6 28 5 2 10 1 0 0 0 0 2 0 19 19 0 6 16 1 0 3 1 126 
195 195 136 0 73 193 170 143 174 75 0 1 0 0 0 3 1 0 4 8 10 29 8 26 23 
41 0 0 0 38 3 38 0 0 1 1 29 0 0 1 0 0 0 0 1 4 17 0 3 2 0 1 1 1 14 33 5 
0 6 0 0 13 1 142 195 190 151 0 82 197 144 73 164 101 0 1 0 0 0 0 0 1 0 
0 0 8 5 43 16 38 6 16 16 9 0 13 0 4 0 0 21 0 0 0 0 0 1 0 0 0 0 3 8 3 0 
1 0 1 0 19 15 0 0 0 0 0 1 129 193 187 133 0 74 185 158 104 153 93 0 0 
2 3 0 0 0 8 7 0 0 4 9 33 1 22 7 20 17 0 0 0 0 9 41 39 0 0 1 28 23 0 0 
0 0 0 0 14 6 0 9 13 0 0 0 0 3 17 7 0 1 0 1 126 194 190 129 0 55 153 147 
112 156 106 0 0 2 2 1 0 0 0 0 0 1 1 5 39 3 2 5 0 0 0 2 0 33 18 22 25 1 
0 2 27 26 0 0 6 1 2 0 1 0 1 18 17 0 0 0 0 20 19 3 0 5 6 0 120 197 193 
125 0 90 107 140 116 156 102 0 0 0 0 1 0 0 0 1 0 1 0 1 21 9 17 37 0 0 
0 0 0 36 17 3 0 0 0 0 0 0 13 4 0 0 3 1 18 0 8 11 0 1 4 9 33 10 1 1 1 17 
21 20 104 149 150 127 0 106 120 146 124 163 116 0 0 4 0 0 0 0 0 0 3 7 
11 0 5 1 0 0 15 13 34 17 0 0 0 16 12 27 0 0 0 21 25 1 0 1 29 0 9 1 1 2 
0 1 7 11 2 3 0 0 0 0 1 1 50 6 34 82 0 110 117 109 95 122 95 1 1 0 1 21 
1 0 0 3 1 2 11 0 27 3 0 0 20 16 29 13 0 0 0 0 7 24 0 1 1 15 17 0 1 0 0 
0 0 0 0 3 4 5 4 4 0 0 0 0 0 0 0 0 9 32 31 0 0 19 66 37 62 14 1 1 0 0 1 
22 3 4 0 11 0 0 0 0 0 0 1 0 0 1 0 0 1 0 0 0 0 0 2 6 0 1 1 0 0 0 1 0 3 
0 0 10 1 2 0 0 0 0 0 1 1 1 0 1 15 30 29 2 0 0 64 47 65 31 0 0 0 0 0 0 
0 0 1 0 0 0 1 0 0 0 1 0 1 1 0 0 1 0 0 0 0 0 0 1 1 0 0 0 1 1 7 2 15 9 0 
1 0 1 0 0 0 1 0 0 0 0 0 0 13 29 29 4 0 0 65 44 63 29 0 0 2 1 1 0 0 0 0 
1 1 0 0 0 0 5 2 1 3 5 0 15 17 0 0 0 0 0 0 0 0 1 6 1 0 0 0 0 0 0 0 0 2 
1 7 7 7 4 13 14 2 1 0 3 3 3 14 1 0 1 67 41 67 32 13 33 14 21 25 8 3 6 
2 7 3 5 24 27 33 22 16 13 17 16 14 28 27 3 3 4 0 2 8 15 12 14 38 39 29 
20 21 25 22 13 17 35 34 35 36 18 33 35 34 37 8 0 17 25 75 109 80 34 30 
34 103 54 98 51 19 23 18 36 46 37 36 41 35 20 6 16 15 27 25 16 27 44 41 
41 47 39 29 31 16 17 10 15 34 40 39 27 34 38 33 39 44 33 42 35 36 46 45 
41 42 35 38 44 34 45 34 21 32 29 124 160 152 41 45 40 38 33 25 35 30 29 
40 45 47 45 46 47 47 45 40 33 37 41 34 33 44 42 40 49 47 40 46 40 36 42 
45 37 34 41 39 37 35 38 26 36 41 42 40 45 47 46 46 42 49 44 41 39 44 50 
52 45 37 44 32 58 52 48 48 47 44 43 46 47 44 46 52 51 48 49 50 50 50 49 
40 42 52 43 43 42 40 40 48 51 42 47 48 44 37 39 47 54 
